<svg width="800" height="600" viewBox="0 0 800 600" xmlns="http://www.w3.org/2000/svg">
  <defs>
    <linearGradient id="bg" x1="0" y1="0" x2="1" y2="1">
      <stop offset="0" stop-color="#E0F2FE" />
      <stop offset="1" stop-color="#DCFCE7" />
    </linearGradient>
  </defs>
  <rect width="800" height="600" rx="40" fill="url(#bg)" />
  <circle cx="180" cy="230" r="70" fill="#004E7C" opacity="0.09" />
  <circle cx="180" cy="230" r="52" fill="#1BA8A2" opacity="0.15" />
  <circle cx="180" cy="230" r="40" fill="#1BA8A2" />
  <circle cx="180" cy="210" r="18" fill="#FFFFFF" />
  <rect x="158" y="230" width="44" height="40" rx="20" fill="#FFFFFF" />
  <circle cx="380" cy="190" r="22" fill="#6DBE45" />
  <circle cx="470" cy="260" r="18" fill="#6DBE45" opacity="0.8" />
  <circle cx="340" cy="310" r="18" fill="#1BA8A2" opacity="0.8" />
  <circle cx="520" cy="180" r="18" fill="#1BA8A2" opacity="0.8" />
  <path d="M210 230 Q300 180 360 190" stroke="#004E7C" stroke-width="4" stroke-linecap="round" opacity="0.35" />
  <path d="M210 240 Q310 260 452 258" stroke="#004E7C" stroke-width="4" stroke-linecap="round" opacity="0.35" />
  <path d="M190 270 Q260 320 340 310" stroke="#004E7C" stroke-width="4" stroke-linecap="round" opacity="0.35" />
  <rect x="310" y="360" width="340" height="26" rx="13" fill="#FFFFFF" opacity="0.9" />
  <rect x="310" y="400" width="260" height="20" rx="10" fill="#FFFFFF" opacity="0.8" />
  <rect x="310" y="430" width="220" height="18" rx="9" fill="#FFFFFF" opacity="0.75" />
</svg>
