<svg width="800" height="450" viewBox="0 0 800 450" xmlns="http://www.w3.org/2000/svg">
  <defs>
    <linearGradient id="bg2" x1="0" y1="0" x2="1" y2="1">
      <stop offset="0" stop-color="#6DBE45" />
      <stop offset="1" stop-color="#88E0EF" />
    </linearGradient>
  </defs>
  <rect width="100%" height="100%" fill="url(#bg2)" />
  <rect x="120" y="110" width="240" height="180" rx="18" fill="#FFFFFF" opacity="0.95" />
  <rect x="140" y="130" width="200" height="18" rx="9" fill="#E5E7EB" />
  <rect x="140" y="160" width="180" height="12" rx="6" fill="#E5E7EB" />
  <rect x="140" y="180" width="160" height="12" rx="6" fill="#E5E7EB" />
  <rect x="140" y="210" width="120" height="10" rx="5" fill="#E5E7EB" />
  <circle cx="580" cy="180" r="70" fill="#FFFFFF22" />
  <circle cx="580" cy="180" r="46" fill="#FFFFFF" />
  <path d="M560 170c10-18 30-12 24 6" fill="none" stroke="#004E7C" stroke-width="4" stroke-linecap="round" />
  <path d="M565 188c8-12 20-9 16 4" fill="none" stroke="#6DBE45" stroke-width="3" stroke-linecap="round" />
  <text x="120" y="330" fill="#0F172A" font-family="Poppins, system-ui" font-weight="600" font-size="26">
    Explore Our Blog Posts
  </text>
  <text x="120" y="360" fill="#111827" font-family="Inter, system-ui" font-size="14">
    Dive deeper into microbiome science, nutrition, and wellbeing with
  </text>
  <text x="120" y="380" fill="#111827" font-family="Inter, system-ui" font-size="14">
    curated stories from the VAMS Biome team.
  </text>
</svg>
